<svg width="24" height="24" viewBox="0 0 24 24" fill="none" xmlns="http://www.w3.org/2000/svg">
<path fill-rule="evenodd" clip-rule="evenodd" d="M10.9115 4.50006C7.37051 4.50006 4.5 7.37057 4.5 10.9115C4.5 14.4525 7.37051 17.323 10.9115 17.323C12.3321 17.323 13.6454 16.8606 14.7083 16.0784L17.8462 19.2163C18.2245 19.5946 18.8379 19.5946 19.2162 19.2163C19.5946 18.838 19.5946 18.2246 19.2162 17.8462L16.0783 14.7083C16.8606 13.6455 17.3229 12.3322 17.3229 10.9115C17.3229 7.37057 14.4524 4.50006 10.9115 4.50006ZM6.43759 10.9115C6.43759 8.44068 8.44061 6.43765 10.9115 6.43765C13.3823 6.43765 15.3853 8.44068 15.3853 10.9115C15.3853 12.1205 14.9062 13.2169 14.1268 14.0223C14.1082 14.0383 14.0901 14.0551 14.0726 14.0726C14.055 14.0902 14.0382 14.1083 14.0223 14.1269C13.2169 14.9063 12.1204 15.3854 10.9115 15.3854C8.44061 15.3854 6.43759 13.3824 6.43759 10.9115Z" fill="#D4D9E1"/>
</svg>
